<?xml version="1.0" encoding="utf-8"?>
<!-- Generator: Adobe Illustrator 26.0.3, SVG Export Plug-In . SVG Version: 6.00 Build 0)  -->
<svg version="1.1" id="Calque_1" xmlns="http://www.w3.org/2000/svg" xmlns:xlink="http://www.w3.org/1999/xlink" x="0px" y="0px"
	 viewBox="0 0 23 24" style="enable-background:new 0 0 23 24;" xml:space="preserve">
<style type="text/css">
	.st0{fill:#737373;}
	.st1{fill:#F25022;}
	.st2{fill:#7FBA00;}
	.st3{fill:#00A4EF;}
	.st4{fill:#FFB900;}
</style>
<path class="st0" d="M71.4-107.8V-94H69v-10.8h0L64.7-94h-1.6l-4.4-10.8h0V-94h-2.2v-13.8h3.4l4,10.2h0.1l4.2-10.2H71.4z
	 M73.4-106.8c0-0.4,0.1-0.7,0.4-1c0.3-0.3,0.6-0.4,1-0.4c0.4,0,0.7,0.1,1,0.4c0.3,0.2,0.4,0.6,0.4,1c0,0.4-0.1,0.7-0.4,1
	c-0.3,0.3-0.6,0.4-1,0.4c-0.4,0-0.7-0.1-1-0.4C73.5-106.1,73.4-106.4,73.4-106.8 M76-94h-2.3v-9.9H76V-94z M83-95.7
	c0.4,0,0.8-0.1,1.1-0.2c0.4-0.2,0.8-0.4,1.2-0.6v2.2c-0.4,0.2-0.8,0.4-1.3,0.5c-0.5,0.1-1,0.2-1.6,0.2c-2.6,0.1-4.8-1.9-4.9-4.5
	c0-0.1,0-0.3,0-0.4c-0.1-1.4,0.4-2.8,1.4-3.9c1-1.1,2.5-1.6,4-1.5c0.4,0,0.9,0.1,1.3,0.2c0.4,0.1,0.7,0.2,1.1,0.4v2.2
	c-0.3-0.3-0.7-0.5-1.1-0.6c-0.4-0.1-0.8-0.2-1.2-0.2c-0.8,0-1.6,0.3-2.2,0.9c-0.6,0.7-0.9,1.5-0.8,2.4c-0.1,0.9,0.2,1.7,0.8,2.3
	C81.4-96,82.2-95.7,83-95.7 M92-104.1c0.2,0,0.3,0,0.5,0c0.1,0,0.3,0.1,0.4,0.1v2.4c-0.2-0.1-0.3-0.2-0.5-0.3
	c-0.3-0.1-0.6-0.1-0.9-0.1c-0.6,0-1.1,0.3-1.4,0.7c-0.4,0.7-0.7,1.4-0.6,2.2v5h-2.3v-9.9h2.3v1.6h0c0.2-0.5,0.5-0.9,1-1.3
	C90.9-103.9,91.4-104.1,92-104.1 M93-98.8c-0.1-1.4,0.4-2.8,1.4-3.9c1-1,2.4-1.5,3.8-1.4c1.3-0.1,2.7,0.4,3.6,1.4
	c0.9,1,1.4,2.4,1.3,3.7c0.1,1.4-0.4,2.8-1.4,3.8c-1,1-2.4,1.5-3.8,1.4c-1.4,0.1-2.7-0.4-3.7-1.4C93.4-96.1,92.9-97.5,93-98.8
	 M95.4-98.9c-0.1,0.8,0.2,1.7,0.7,2.4c0.5,0.6,1.3,0.9,2,0.8c0.7,0,1.5-0.3,1.9-0.8c0.5-0.7,0.7-1.6,0.7-2.4
	c0.1-0.9-0.2-1.7-0.7-2.4c-0.5-0.6-1.2-0.9-1.9-0.8c-0.8,0-1.5,0.3-2,0.9C95.6-100.6,95.3-99.8,95.4-98.9 M106.6-101.3
	c0,0.3,0.1,0.6,0.3,0.8c0.4,0.3,0.9,0.5,1.4,0.7c0.7,0.3,1.4,0.7,2,1.3c0.4,0.5,0.6,1.1,0.6,1.7c0,0.9-0.4,1.7-1.1,2.2
	c-0.8,0.6-1.9,0.9-2.9,0.8c-0.5,0-0.9-0.1-1.4-0.1c-0.4-0.1-0.9-0.2-1.3-0.4v-2.3c0.4,0.3,0.9,0.5,1.4,0.7c0.4,0.2,0.9,0.2,1.3,0.3
	c0.4,0,0.8,0,1.2-0.2c0.3-0.2,0.4-0.4,0.4-0.7c0-0.3-0.1-0.6-0.4-0.8c-0.5-0.3-1-0.6-1.5-0.8c-0.7-0.2-1.3-0.7-1.8-1.2
	c-0.4-0.5-0.6-1.1-0.5-1.7c0-0.9,0.4-1.7,1.1-2.2c0.8-0.6,1.8-0.9,2.8-0.9c0.4,0,0.8,0,1.2,0.1c0.4,0.1,0.7,0.2,1.1,0.3v2.2
	c-0.3-0.2-0.7-0.4-1.1-0.5c-0.4-0.1-0.8-0.2-1.2-0.2c-0.4,0-0.7,0.1-1,0.3C106.7-101.9,106.6-101.6,106.6-101.3 M111.8-98.8
	c-0.1-1.4,0.4-2.8,1.4-3.9c1-1,2.4-1.5,3.8-1.4c1.3-0.1,2.7,0.4,3.6,1.4c0.9,1,1.4,2.4,1.3,3.7c0.1,1.4-0.4,2.8-1.4,3.8
	c-1,1-2.4,1.5-3.8,1.4c-1.4,0.1-2.7-0.4-3.7-1.4C112.3-96.1,111.8-97.5,111.8-98.8 M114.3-98.9c-0.1,0.8,0.2,1.7,0.7,2.4
	c0.5,0.6,1.3,0.9,2,0.8c0.7,0,1.5-0.3,1.9-0.8c0.5-0.7,0.7-1.6,0.7-2.4c0.1-0.9-0.2-1.7-0.7-2.4c-0.5-0.6-1.2-0.9-1.9-0.8
	c-0.8,0-1.5,0.3-2,0.9C114.5-100.6,114.2-99.8,114.3-98.9 M129.7-102h-3.5v8h-2.4v-8h-1.7v-1.9h1.7v-1.4c0-1,0.3-1.9,1-2.6
	c0.7-0.7,1.6-1,2.6-1c0.3,0,0.5,0,0.8,0c0.2,0,0.4,0.1,0.6,0.1v2c-0.1-0.1-0.3-0.1-0.4-0.2c-0.2-0.1-0.4-0.1-0.7-0.1
	c-0.4,0-0.8,0.1-1.1,0.5c-0.3,0.4-0.4,0.9-0.4,1.4v1.2h3.5v-2.2l2.3-0.7v2.9h2.4v1.9h-2.4v4.6c0,0.5,0.1,0.9,0.3,1.3
	c0.3,0.3,0.7,0.4,1,0.4c0.2,0,0.3,0,0.5-0.1c0.2-0.1,0.3-0.1,0.5-0.2v1.9c-0.2,0.1-0.5,0.2-0.7,0.2c-0.3,0.1-0.7,0.1-1,0.1
	c-0.8,0.1-1.6-0.2-2.2-0.8c-0.5-0.7-0.8-1.5-0.7-2.4L129.7-102z"/>
<rect y="0" class="st1" width="10.9" height="10.9"/>
<rect x="12.1" y="0" class="st2" width="10.9" height="10.9"/>
<rect y="12.1" class="st3" width="10.9" height="10.9"/>
<rect x="12.1" y="12.1" class="st4" width="10.9" height="10.9"/>
</svg>
